<?xml version="1.0" ?><!DOCTYPE svg  PUBLIC '-//W3C//DTD SVG 1.1//EN'  'http://www.w3.org/Graphics/SVG/1.1/DTD/svg11.dtd'><svg enable-background="new 0 0 500 500" height="500px" id="Layer_1" version="1.1" viewBox="0 0 500 500" width="500px" xml:space="preserve" xmlns="http://www.w3.org/2000/svg" xmlns:xlink="http://www.w3.org/1999/xlink"><path clip-rule="evenodd" d="M410.276,468.051c31.335-50.695,48.689-109.576,48.689-167.718  c0-25.624-2.633-50.696-9.086-74.955c-4.719-16.714-18.437-29.891-36.341-29.891c-10.805,0-20.617,4.721-27.254,12.271v-3.185  c0-20.079-16.267-36.343-36.346-36.343c-20.078,0-36.34,16.264-36.34,36.343v-18.173c0-20.079-16.262-36.34-36.341-36.34  s-36.344,16.262-36.344,36.34V68.29c0-20.077-16.262-36.34-36.34-36.34c-20.079,0-36.343,16.264-36.343,36.34v207.246  c0,10.08-8.177,18.172-18.17,18.172c-1.728,0-3.365-0.274-4.996-0.729l-51.338-20.893c-4.906-2.462-10.446-3.914-16.351-3.914  c-20.079,0-36.342,16.262-36.342,36.341c0,15.085,9.268,28.072,22.35,33.621c58.968,30.429,106.209,67.774,139.281,129.917H410.276z  " fill="#010101" fill-rule="evenodd"/></svg>